<svg xmlns="http://www.w3.org/2000/svg" viewBox="0 0 80 80" enable-background="new 0 0 80 80"><switch><g><circle cx="40" cy="40" r="40" fill="#2e98e3"/><g><path d="m56.4 23.4c-1.3 0-2.6.3-3.8.7-1.7-5.2-6.6-8.9-12.3-8.9-6.1 0-11.2 4.2-12.6 9.8-.7-.2-1.4-.3-2.2-.3-4 0-7.2 3.2-7.2 7.2 0 .7.1 1.4.3 2-.1 0-.1 0-.2 0-3.1 0-5.5 2.5-5.5 5.5 0 3.1 2.5 5.5 5.5 5.5h38c5.9 0 10.8-4.8 10.8-10.8 0-5.9-4.9-10.7-10.8-10.7" fill="#fff"/><g><path d="m39.6 48.6c0 0-1.8 2.4-2.7 4.5-.2.4-.3.8-.3 1.2 0 .3 0 .5.1.8.3 1.3 1.5 2.2 2.9 2.2 1.4 0 2.5-.9 2.9-2.2.1-.3.1-.5.1-.8 0-.4-.1-.8-.3-1.2-.9-2.1-2.7-4.5-2.7-4.5" fill="#8bdcfc"/><path d="m18.1 51c0 0-1.8 2.4-2.7 4.5-.2.4-.3.8-.3 1.2 0 .3 0 .5.1.8.3 1.3 1.5 2.2 2.9 2.2 1.4 0 2.5-.9 2.9-2.2 0-.3 0-.5 0-.8 0-.4-.1-.8-.3-1.2-.8-2.1-2.6-4.5-2.6-4.5" fill="#8bdcfc"/><path d="m61.9 51c0 0-1.8 2.4-2.7 4.5-.2.4-.3.8-.3 1.2 0 .3 0 .5.1.8.3 1.3 1.5 2.2 2.9 2.2 1.4 0 2.5-.9 2.9-2.2.1-.3.1-.5.1-.8 0-.4-.1-.8-.3-1.2-.8-2.1-2.7-4.5-2.7-4.5" fill="#8bdcfc"/><path d="m29 57.6c0 0-1.5 2-2.3 3.8-.1.3-.2.6-.2 1 0 .2 0 .4.1.7.3 1.1 1.2 1.8 2.4 1.8 1.1 0 2.1-.8 2.4-1.8.1-.2.1-.4.1-.7 0-.4-.1-.7-.2-1-.7-1.8-2.3-3.8-2.3-3.8" fill="#8bdcfc"/><path d="m51 57.6c0 0-1.5 2-2.3 3.8-.1.3-.2.6-.2 1 0 .2 0 .4.1.7.3 1.1 1.2 1.8 2.4 1.8 1.1 0 2.1-.8 2.4-1.8.1-.2.1-.4.1-.7 0-.4-.1-.7-.2-1-.8-1.8-2.3-3.8-2.3-3.8" fill="#8bdcfc"/></g></g></g></switch></svg>